<svg version="1.1" id="LogoLayer_1" xmlns="http://www.w3.org/2000/svg" xmlns:xlink="http://www.w3.org/1999/xlink" x="0px" y="0px" width="199.169px" height="29.52px" viewBox="0 0 199.169 29.52" enable-background="new 0 0 199.169 29.52" xml:space="preserve">
<g>
	<defs>
		<rect id="LogoSVGID_1_" width="199.169" height="29.52"></rect>
	</defs>
	<clipPath id="LogoSVGID_2_">
		<use xlink:href="#SVGID_1_" overflow="visible"></use>
	</clipPath>
	<path clip-path="url(#SVGID_2_)" class="fill_2E3A8B" fill="" d="M64.1,18.993c-0.111,5.302-5.27,6.248-8.491,6.181
		c-8.355-0.176-8.462-6.434-8.461-6.79h4.508v0.079c-0.067,3.252,4.024,3.338,4.024,3.338c1.744,0.037,3.883-0.549,3.957-2.398
		c0.068-1.946-2.308-2.37-5.722-3.41c-1.33-0.396-5.97-1.306-5.876-5.784c0.126-6.021,7.641-5.864,7.641-5.864
		c7.623,0.16,7.96,5.461,7.957,6.043h-4.293v-0.075c0,0,0.052-2.488-3.734-2.567c0,0-3.062-0.063-3.109,2.194
		c-0.034,1.582,1.554,1.962,2.719,2.288C58.255,13.07,64.207,13.846,64.1,18.993 M74.379,4.777l-7.487,19.967h4.585l5.195-13.853
		l5.194,13.853h4.585L78.966,4.777H74.379z M26.709,21.789H2.201c3.093,4.605,9.131,7.731,16.073,7.731s12.98-3.127,16.074-7.731
		c0.595-0.887,1.08-1.827,1.442-2.812h-5.104C30.106,20.615,28.544,21.789,26.709,21.789 M9.84,7.731h24.507
		C31.254,3.126,25.216,0,18.274,0S5.294,3.126,2.201,7.731c-0.595,0.887-1.081,1.828-1.443,2.812h5.104
		C6.442,8.905,8.004,7.731,9.84,7.731 M0.187,12.652C0.064,13.34,0,14.044,0,14.76c0,0.716,0.063,1.42,0.186,2.108h36.176
		c0.122-0.688,0.186-1.393,0.186-2.108c0-0.716-0.064-1.42-0.186-2.108H0.187z M100.624,13.956l-4.59-9.179h-5.608v19.967h4.294
		V10.789l4.831,9.661h2.146l4.83-9.661v13.955h4.294V4.777h-5.608L100.624,13.956z M194.876,4.777v17.933l-5.604-17.933h-7.707
		v19.967h4.293V6.81l5.604,17.934h7.707V4.777H194.876z M172.333,16.585c0,2.371-1.923,4.294-4.294,4.294
		c-2.372,0-4.294-1.923-4.294-4.294V4.777h-4.294v11.808c0,4.743,3.845,8.588,8.588,8.588c4.742,0,8.587-3.845,8.587-8.588V4.777
		h-4.293V16.585z M129.177,12.828h-8.909V4.777h-4.294v19.967h4.294v-8.051h8.909v8.051h4.295V4.777h-4.295V12.828z M146.461,13.956
		l-4.589-9.179h-4.32l6.762,13.525v6.441h4.295v-6.441l6.763-13.525h-4.32L146.461,13.956z"></path>
</g>
</svg>