<svg xmlns="http://www.w3.org/2000/svg" xmlns:xlink="http://www.w3.org/1999/xlink" width="7937" height="1172" viewBox="0 0 7937 1172">
  <defs>
    <style>
      .cls-1 {
        clip-path: url(#clip-아트보드_2);
      }

      .cls-2 {
        fill: #e82e01;
      }
    </style>
    <clipPath id="clip-아트보드_2">
      <rect width="7937" height="1172"/>
    </clipPath>
  </defs>
  <g id="아트보드_2" data-name="아트보드 – 2" class="cls-1">
    <path id="교차_2" data-name="교차 2" class="cls-2" d="M3344.228,983.935a505.165,505.165,0,0,1-159.684-108.452,520.291,520.291,0,0,1-107.786-160.348,499,499,0,0,1,0-391.224,519.985,519.985,0,0,1,107.787-160.4A505.988,505.988,0,0,1,3344.228,55.057a499.006,499.006,0,0,1,391.222,0,510.1,510.1,0,0,1,268.744,268.8,499.012,499.012,0,0,1,0,391.223,510.482,510.482,0,0,1-268.744,268.744,499.012,499.012,0,0,1-391.225,0Zm102.462-693.9a252.521,252.521,0,0,0-127.746,325.354,259.6,259.6,0,0,0,51.23,79.842,249.515,249.515,0,0,0,76.515,55.445,220.288,220.288,0,0,0,186.3,0,257.868,257.868,0,0,0,77.18-55.446,252.963,252.963,0,0,0,51.9-270.8,243.942,243.942,0,0,0-51.9-79.842,264.016,264.016,0,0,0-77.181-54.558A220.288,220.288,0,0,0,3446.691,290.035ZM1559.77,983.935a505.173,505.173,0,0,1-159.683-108.451A520.287,520.287,0,0,1,1292.3,715.136a499.006,499.006,0,0,1,0-391.224,519.963,519.963,0,0,1,107.786-160.4A506.01,506.01,0,0,1,1559.77,55.057a499.008,499.008,0,0,1,391.223,0,510.1,510.1,0,0,1,268.744,268.8,499.011,499.011,0,0,1,0,391.223,510.487,510.487,0,0,1-268.744,268.745,499.01,499.01,0,0,1-391.223,0Zm102.463-693.9a252.517,252.517,0,0,0-127.747,325.354,259.653,259.653,0,0,0,51.232,79.842,249.5,249.5,0,0,0,76.515,55.446,220.285,220.285,0,0,0,186.3,0,257.884,257.884,0,0,0,77.181-55.446,252.967,252.967,0,0,0,51.9-270.8,243.958,243.958,0,0,0-51.9-79.842,263.976,263.976,0,0,0-77.18-54.558,220.285,220.285,0,0,0-186.3,0Zm5312.122,716.522a31.88,31.88,0,0,1-31.936-31.936V64.427a31.769,31.769,0,0,1,31.936-31.937h363.279A485.319,485.319,0,0,1,7679.4,154.914a436.764,436.764,0,0,1,109.06,158.352,544.218,544.218,0,0,1,37.259,206.313,548.892,548.892,0,0,1-37.259,206.867A435.165,435.165,0,0,1,7679.4,885.464a452.792,452.792,0,0,1-152.417,90.487,560.836,560.836,0,0,1-189.625,30.661Zm240.856-717.3a31,31,0,0,0-9.317,22.677V729.773a31.882,31.882,0,0,0,31.939,31.936h99.8a337.751,337.751,0,0,0,77.179-9.315,176.2,176.2,0,0,0,72.082-35.208A189.693,189.693,0,0,0,7539.457,644a310.482,310.482,0,0,0,20.68-123.089,310.485,310.485,0,0,0-20.68-123.034,186.742,186.742,0,0,0-53.172-73.188,182.04,182.04,0,0,0-72.079-35.263,332.674,332.674,0,0,0-76.57-9.26h-99.8a30.825,30.825,0,0,0-22.622,9.148Zm-677.324,717.3a58.713,58.713,0,0,1-27.721-7.984,68.746,68.746,0,0,1-22.678-18.685L6140.176,491.579c-5.544-7.152-11.088-9.98-16.634-8.7s-8.649,6.432-8.649,15.3V974.565a31.879,31.879,0,0,1-32.323,31.992H5884.241a31.88,31.88,0,0,1-31.938-31.936V64.427a31.773,31.773,0,0,1,31.937-31.937h199.6a70.079,70.079,0,0,1,50.621,25.228l345.981,488.364a18.078,18.078,0,0,0,16.635,9.315q8.7-1.331,8.7-14.693V64.427a31.717,31.717,0,0,1,31.938-31.937H6734.61a31.716,31.716,0,0,1,31.937,31.937V974.62a31.771,31.771,0,0,1-31.936,31.937Zm-1070.1,0a30.388,30.388,0,0,1-23.289-9.315,31.942,31.942,0,0,1-8.649-22.622V65.758a31.938,31.938,0,0,1,8.649-22.622,30.385,30.385,0,0,1,23.288-9.314h200.879a31.773,31.773,0,0,1,31.938,31.937V974.62a31.773,31.773,0,0,1-31.937,31.937Zm-459.088,0a31.773,31.773,0,0,1-31.937-31.937V546.359a12.643,12.643,0,0,0-11.977-14.638,20.85,20.85,0,0,0-19.961,9.259l-223.555,360.4a23.233,23.233,0,0,1-21.291,10.646,26.5,26.5,0,0,1-22.622-10.646L4453.8,540.981a18.24,18.24,0,0,0-18.686-9.259,12.643,12.643,0,0,0-11.978,14.637V974.842a31.769,31.769,0,0,1-31.657,31.715H4190.6a31.771,31.771,0,0,1-31.937-31.937V65.758A31.769,31.769,0,0,1,4190.6,33.821h186.3a58.881,58.881,0,0,1,27.723,7.985,55.442,55.442,0,0,1,21.292,18.685l255.492,375.255a22.956,22.956,0,0,0,18.63,10.645,19.905,19.905,0,0,0,17.3-10.646L4972.828,60.491a68.04,68.04,0,0,1,22.623-18.685,58.884,58.884,0,0,1,27.723-7.984h186.3a31.769,31.769,0,0,1,31.937,31.936V974.62a31.769,31.769,0,0,1-31.937,31.937Zm-2465.827,0a31.881,31.881,0,0,1-31.937-31.936V309.274a31.933,31.933,0,0,0-8.649-22.622A30.384,30.384,0,0,0,2479,277.338H2290.1a31.715,31.715,0,0,1-31.936-31.937V64.427A31.714,31.714,0,0,1,2290.1,32.491H2992.7a30.218,30.218,0,0,1,23.73,9.315,32.1,32.1,0,0,1,8.706,22.677V245.4a32.1,32.1,0,0,1-8.706,22.677,30.216,30.216,0,0,1-23.232,9.259H2806.849a31.882,31.882,0,0,0-31.937,31.937V974.621a31.934,31.934,0,0,1-8.65,22.622,30.387,30.387,0,0,1-23.287,9.315Zm-1612.522,0a31.881,31.881,0,0,1-31.936-31.936V546.359a12.643,12.643,0,0,0-11.977-14.638,20.9,20.9,0,0,0-19.96,9.259l-223.556,360.4a23.232,23.232,0,0,1-21.236,10.645,26.67,26.67,0,0,1-22.677-10.811l-223.556-360.4a18.13,18.13,0,0,0-18.63-9.259,12.642,12.642,0,0,0-11.976,14.637V974.676a31.882,31.882,0,0,1-31.937,31.882H111.977A31.881,31.881,0,0,1,80.04,974.621V65.758a31.881,31.881,0,0,1,31.936-31.937H298.329a59.048,59.048,0,0,1,27.723,7.984,55.443,55.443,0,0,1,21.236,18.685L603,435.469a23.066,23.066,0,0,0,18.685,10.645,19.794,19.794,0,0,0,17.243-10.645L894.424,60.213A68.752,68.752,0,0,1,917.1,41.528a58.718,58.718,0,0,1,27.723-7.984h186.463a31.882,31.882,0,0,1,31.937,31.937V974.62a31.882,31.882,0,0,1-31.937,31.937Z" transform="translate(35.589 83.559)"/>
  </g>
</svg>
